<svg width="156" height="118" viewBox="0 0 156 118" fill="none" xmlns="http://www.w3.org/2000/svg">
<rect width="156" height="118" fill="white"/>
<g clip-path="url(#clip0_1_695)">
<path d="M33.3333 47C33.3333 45.5334 34.5333 44.3334 36 44.3334C37.4667 44.3334 38.6667 45.5334 38.6667 47C38.6667 48.4667 37.4667 49.6667 36 49.6667C34.5333 49.6667 33.3333 48.4667 33.3333 47ZM25.6667 73C25.12 73 24.6667 73.4534 24.6667 74C24.6667 74.5467 25.12 75 25.6667 75C26.2133 75 26.6667 74.5467 26.6667 74C26.6667 73.4534 26.2133 73 25.6667 73ZM37 73C36.4533 73 36 73.4534 36 74C36 74.5467 36.4533 75 37 75C37.5467 75 38 74.5467 38 74C38 73.4534 37.5467 73 37 73ZM41.6533 68.3334C41.3333 68.3334 41.0533 68.48 40.8667 68.7334C40.1333 69.7067 38.9733 70.3334 37.6667 70.3334H37.3333V62.3334L31.5733 58.7734L33.9733 54.92C35.5067 57.3734 38.24 59 41.3333 59V56.3334C38.8667 56.3334 36.7467 54.84 35.8267 52.7067L35.1333 51.0934C34.88 50.52 34.1467 49.6667 32.9333 49.6667H25.3333L22 55L24.2667 56.4134L26.8 52.3334H29.9333L26.7333 57.4534C26.32 58.12 26.2133 58.9334 26.4533 59.68L28.24 65.2134L24.08 70.2267C23.1467 70.0134 22.3467 69.4667 21.8 68.7334C21.6133 68.48 21.32 68.3334 21 68.3334C20.4133 68.3334 20 68.8134 20 69.3334C20 69.5334 20.0667 69.7467 20.2 69.9334C21.2933 71.4 23.04 72.3334 25 72.3334H37.6667C39.6267 72.3334 41.3733 71.4 42.4667 69.9334C42.6 69.7467 42.6667 69.5334 42.6667 69.3334C42.6667 68.8134 42.24 68.3334 41.6533 68.3334ZM34.6667 70.3334H27.4667L31.3333 65.6667L30 61.2667L34.6667 64.2V70.3334Z" fill="#2A7AE4"/>
</g>
<path d="M17.184 98V86.64H22C22.5227 86.64 23.0027 86.7467 23.44 86.96C23.888 87.1733 24.272 87.4613 24.592 87.824C24.912 88.1867 25.1627 88.592 25.344 89.04C25.5253 89.488 25.616 89.9467 25.616 90.416C25.616 91.056 25.4667 91.664 25.168 92.24C24.8693 92.816 24.4533 93.2853 23.92 93.648C23.3973 94.0107 22.784 94.192 22.08 94.192H19.392V98H17.184ZM19.392 92.256H21.952C22.3573 92.256 22.6933 92.0907 22.96 91.76C23.2373 91.4187 23.376 90.9707 23.376 90.416C23.376 89.8293 23.2213 89.376 22.912 89.056C22.6027 88.736 22.2507 88.576 21.856 88.576H19.392V92.256ZM26.2594 95.52C26.2594 94.976 26.4087 94.5013 26.7074 94.096C27.0167 93.68 27.4434 93.36 27.9874 93.136C28.5314 92.912 29.1554 92.8 29.8594 92.8C30.2114 92.8 30.5687 92.832 30.9314 92.896C31.294 92.9493 31.6087 93.0293 31.8754 93.136V92.688C31.8754 92.1547 31.7154 91.744 31.3954 91.456C31.086 91.168 30.622 91.024 30.0034 91.024C29.5447 91.024 29.1074 91.104 28.6914 91.264C28.2754 91.424 27.838 91.6587 27.3794 91.968L26.6914 90.56C27.246 90.1973 27.8114 89.9253 28.3874 89.744C28.974 89.5627 29.5874 89.472 30.2274 89.472C31.422 89.472 32.35 89.7707 33.0114 90.368C33.6834 90.9653 34.0194 91.8187 34.0194 92.928V95.6C34.0194 95.8347 34.0567 96 34.1314 96.096C34.206 96.1813 34.3394 96.2347 34.5314 96.256V98C34.3394 98.0427 34.1634 98.0693 34.0034 98.08C33.854 98.1013 33.726 98.112 33.6194 98.112C33.1927 98.112 32.8674 98.016 32.6434 97.824C32.4194 97.632 32.286 97.3973 32.2434 97.12L32.1954 96.688C31.822 97.168 31.3634 97.536 30.8194 97.792C30.286 98.0373 29.7367 98.16 29.1714 98.16C28.606 98.16 28.1047 98.048 27.6674 97.824C27.23 97.5893 26.8834 97.2747 26.6274 96.88C26.382 96.4747 26.2594 96.0213 26.2594 95.52ZM31.4754 95.952C31.742 95.696 31.8754 95.4507 31.8754 95.216V94.368C31.3207 94.144 30.7607 94.032 30.1954 94.032C29.63 94.032 29.1714 94.1547 28.8194 94.4C28.4674 94.6347 28.2914 94.9493 28.2914 95.344C28.2914 95.664 28.4194 95.952 28.6754 96.208C28.9314 96.464 29.2994 96.592 29.7794 96.592C30.0994 96.592 30.4087 96.5333 30.7074 96.416C31.0167 96.2987 31.2727 96.144 31.4754 95.952ZM40.9688 97.568C40.6808 97.696 40.3234 97.824 39.8968 97.952C39.4808 98.08 39.0488 98.144 38.6008 98.144C38.2061 98.144 37.8434 98.0747 37.5128 97.936C37.1821 97.7973 36.9154 97.5787 36.7128 97.28C36.5208 96.9707 36.4248 96.5707 36.4248 96.08V91.264H35.3208V89.616H36.4248V86.896H38.5688V89.616H40.3288V91.264H38.5688V95.36C38.5688 95.648 38.6434 95.856 38.7928 95.984C38.9528 96.112 39.1448 96.176 39.3688 96.176C39.5928 96.176 39.8114 96.1387 40.0248 96.064C40.2381 95.9893 40.4088 95.9253 40.5368 95.872L40.9688 97.568ZM42.0854 88.448V86.32H44.2294V88.448H42.0854ZM42.0854 98V89.616H44.2294V98H42.0854ZM53.9555 98H51.8115V93.296C51.8115 92.624 51.6942 92.1333 51.4595 91.824C51.2248 91.5147 50.8995 91.36 50.4835 91.36C50.1955 91.36 49.9022 91.4347 49.6035 91.584C49.3155 91.7333 49.0542 91.9413 48.8195 92.208C48.5848 92.464 48.4142 92.7627 48.3075 93.104V98H46.1635V89.616H48.0995V91.168C48.4088 90.6453 48.8568 90.2347 49.4435 89.936C50.0302 89.6267 50.6915 89.472 51.4275 89.472C51.9502 89.472 52.3768 89.568 52.7075 89.76C53.0382 89.9413 53.2942 90.192 53.4755 90.512C53.6568 90.8213 53.7795 91.1733 53.8435 91.568C53.9182 91.9627 53.9555 92.3627 53.9555 92.768V98ZM55.2438 95.52C55.2438 94.976 55.3931 94.5013 55.6918 94.096C56.0011 93.68 56.4278 93.36 56.9718 93.136C57.5158 92.912 58.1398 92.8 58.8438 92.8C59.1958 92.8 59.5531 92.832 59.9158 92.896C60.2784 92.9493 60.5931 93.0293 60.8598 93.136V92.688C60.8598 92.1547 60.6998 91.744 60.3798 91.456C60.0704 91.168 59.6064 91.024 58.9878 91.024C58.5291 91.024 58.0918 91.104 57.6758 91.264C57.2598 91.424 56.8224 91.6587 56.3638 91.968L55.6758 90.56C56.2304 90.1973 56.7958 89.9253 57.3718 89.744C57.9584 89.5627 58.5718 89.472 59.2118 89.472C60.4064 89.472 61.3344 89.7707 61.9958 90.368C62.6678 90.9653 63.0038 91.8187 63.0038 92.928V95.6C63.0038 95.8347 63.0411 96 63.1158 96.096C63.1904 96.1813 63.3238 96.2347 63.5158 96.256V98C63.3238 98.0427 63.1478 98.0693 62.9878 98.08C62.8384 98.1013 62.7104 98.112 62.6038 98.112C62.1771 98.112 61.8518 98.016 61.6278 97.824C61.4038 97.632 61.2704 97.3973 61.2278 97.12L61.1798 96.688C60.8064 97.168 60.3478 97.536 59.8038 97.792C59.2704 98.0373 58.7211 98.16 58.1558 98.16C57.5904 98.16 57.0891 98.048 56.6518 97.824C56.2144 97.5893 55.8678 97.2747 55.6118 96.88C55.3664 96.4747 55.2438 96.0213 55.2438 95.52ZM60.4598 95.952C60.7264 95.696 60.8598 95.4507 60.8598 95.216V94.368C60.3051 94.144 59.7451 94.032 59.1798 94.032C58.6144 94.032 58.1558 94.1547 57.8038 94.4C57.4518 94.6347 57.2758 94.9493 57.2758 95.344C57.2758 95.664 57.4038 95.952 57.6598 96.208C57.9158 96.464 58.2838 96.592 58.7638 96.592C59.0838 96.592 59.3931 96.5333 59.6918 96.416C60.0011 96.2987 60.2571 96.144 60.4598 95.952ZM65.0872 88.448V86.32H67.2313V88.448H65.0872ZM64.3193 101.136C63.9246 101.136 63.5459 101.072 63.1832 100.944C62.8099 100.827 62.4792 100.64 62.1912 100.384L63.1192 98.928C63.2472 99.0453 63.3966 99.1307 63.5672 99.184C63.7272 99.248 63.8926 99.28 64.0633 99.28C64.3406 99.28 64.5806 99.1787 64.7833 98.976C64.9859 98.784 65.0872 98.5333 65.0872 98.224V89.616H67.2313V98.064C67.2313 98.672 67.1033 99.2053 66.8473 99.664C66.5913 100.123 66.2393 100.48 65.7913 100.736C65.3539 101.003 64.8633 101.136 64.3193 101.136ZM73.0671 98.16C72.1605 98.16 71.3765 97.9627 70.7151 97.568C70.0645 97.1733 69.5578 96.6507 69.1951 96C68.8325 95.3387 68.6511 94.624 68.6511 93.856C68.6511 93.0667 68.8271 92.3413 69.1791 91.68C69.5418 91.008 70.0538 90.4747 70.7151 90.08C71.3765 89.6747 72.1658 89.472 73.0831 89.472C74.0005 89.472 74.7845 89.6747 75.4351 90.08C76.0858 90.4747 76.5818 91.0027 76.9231 91.664C77.2751 92.3147 77.4511 93.0187 77.4511 93.776C77.4511 94.0533 77.4351 94.2933 77.4031 94.496H70.9231C70.9765 95.1467 71.2165 95.6587 71.6431 96.032C72.0805 96.4053 72.5818 96.592 73.1471 96.592C73.5738 96.592 73.9738 96.4907 74.3471 96.288C74.7311 96.0747 74.9925 95.7973 75.1311 95.456L76.9711 95.968C76.6618 96.608 76.1658 97.136 75.4831 97.552C74.8005 97.9573 73.9951 98.16 73.0671 98.16ZM70.8751 93.136H75.2591C75.1951 92.5067 74.9551 92 74.5391 91.616C74.1338 91.2213 73.6378 91.024 73.0511 91.024C72.4751 91.024 71.9791 91.2213 71.5631 91.616C71.1578 92 70.9285 92.5067 70.8751 93.136Z" fill="#464646"/>
<defs>
<clipPath id="clip0_1_695">
<rect width="32" height="32" fill="white" transform="translate(16 43)"/>
</clipPath>
</defs>
</svg>
