<?xml version="1.0" standalone="no"?>
<!DOCTYPE svg PUBLIC "-//W3C//DTD SVG 20010904//EN"
 "http://www.w3.org/TR/2001/REC-SVG-20010904/DTD/svg10.dtd">
<svg version="1.0" xmlns="http://www.w3.org/2000/svg"
 width="404.000000pt" height="316.000000pt" viewBox="0 0 404.000000 316.000000"
 preserveAspectRatio="xMidYMid meet">

<g transform="translate(0.000000,316.000000) scale(0.100000,-0.100000)"
fill="#ffffff" stroke="none">
<path d="M765 2036 c-134 -43 -243 -137 -302 -262 -60 -126 -58 -272 4 -402
41 -85 135 -174 230 -220 l78 -37 1250 0 1250 0 78 37 c105 50 185 130 235
235 36 76 37 81 37 193 0 112 -1 117 -37 193 -50 105 -130 185 -235 235 l-78
37 -1235 2 c-979 1 -1243 -1 -1275 -11z m2546 -92 c84 -40 158 -114 201 -201
30 -62 33 -75 33 -163 0 -88 -3 -101 -33 -163 -44 -89 -114 -160 -199 -200
l-68 -32 -1005 0 -1005 0 -66 32 c-83 41 -159 121 -202 210 -28 60 -32 78 -31
153 0 74 4 94 31 152 52 112 149 200 256 234 34 10 234 12 1032 11 l990 -2 66
-31z"/>
<path d="M1223 1770 c-56 -34 -67 -62 -71 -179 -4 -122 9 -160 67 -198 44 -30
122 -31 168 -3 55 33 76 99 37 114 -21 8 -38 -2 -63 -34 -16 -23 -30 -30 -54
-30 -61 0 -77 30 -77 140 0 110 16 140 77 140 24 0 38 -7 54 -30 25 -32 42
-42 63 -34 39 15 18 81 -37 114 -43 26 -121 26 -164 0z"/>
<path d="M1562 1778 c-17 -17 -17 -379 0 -396 8 -8 51 -12 130 -12 102 0 119
2 127 18 6 11 6 24 0 35 -8 14 -25 17 -99 17 l-90 0 0 55 0 55 70 0 c56 0 72
3 77 16 13 34 -11 49 -81 52 l-66 3 0 49 0 50 90 0 c80 0 90 2 100 21 22 40
-1 49 -129 49 -78 0 -121 -4 -129 -12z"/>
<path d="M1943 1779 c-10 -10 -13 -64 -13 -199 0 -192 4 -210 42 -210 26 0 38
32 38 104 l0 66 30 0 c26 0 33 -7 72 -82 36 -69 47 -83 67 -83 47 0 49 28 8
104 l-37 69 30 22 c60 43 62 137 4 191 -23 22 -36 24 -127 27 -73 3 -106 0
-114 -9z m189 -76 c22 -20 23 -51 1 -75 -12 -13 -30 -18 -70 -18 l-53 0 0 55
0 55 52 0 c34 0 58 -6 70 -17z"/>
<path d="M2300 1774 c-23 -26 0 -49 54 -52 l46 -3 0 -155 c0 -159 7 -194 38
-194 38 0 42 19 42 186 l0 163 53 3 c50 3 52 4 52 33 l0 30 -136 3 c-115 2
-138 0 -149 -14z"/>
<path d="M2680 1775 c-8 -10 -11 -57 -8 -163 3 -164 10 -185 71 -223 25 -16
45 -19 94 -17 53 3 67 8 93 33 43 41 52 82 48 234 -3 115 -6 135 -20 145 -13
8 -23 8 -35 0 -16 -10 -19 -33 -23 -163 -4 -136 -7 -154 -24 -167 -29 -21 -82
-18 -106 6 -18 18 -20 33 -20 169 0 127 -2 150 -16 155 -25 10 -41 7 -54 -9z"/>
<path d="M3128 1772 c-53 -32 -72 -106 -42 -163 17 -34 56 -53 127 -63 35 -5
52 -14 63 -32 15 -22 15 -26 0 -49 -14 -21 -24 -25 -69 -25 -28 1 -63 7 -77
14 -30 17 -60 5 -60 -24 0 -34 56 -60 128 -60 108 0 162 43 162 130 0 61 -46
105 -120 115 -30 4 -63 11 -72 17 -23 11 -24 61 -2 79 19 16 90 15 109 -1 8
-7 24 -9 35 -5 30 9 23 55 -10 72 -37 19 -139 16 -172 -5z"/>
</g>
</svg>
